<?xml version="1.0" encoding="utf-8"?>
<!-- Generator: Adobe Illustrator 15.1.0, SVG Export Plug-In . SVG Version: 6.00 Build 0)  -->
<!DOCTYPE svg PUBLIC "-//W3C//DTD SVG 1.1//EN" "http://www.w3.org/Graphics/SVG/1.1/DTD/svg11.dtd">
<svg version="1.1" id="svg2" xmlns="http://www.w3.org/2000/svg" xmlns:xlink="http://www.w3.org/1999/xlink" x="0px" y="0px"
	 width="499.202px" height="317px" viewBox="0 0 499.202 317" enable-background="new 0 0 499.202 317" xml:space="preserve">
<g>
	<path d="M37.247,206.759H15.631V15.205c0,0,154.452,0,190.028,0c83.355,0,96.508,74.881,96.508,74.881l46.775-74.881h49.016
		l89.597,145.241l-28.067,46.313H341.349v-23.105h132.137L373.4,15.205c0,0-65.964,114.783-80.125,137.145
		c-14.162,22.36-40.764,54.41-86.328,54.41c-35.777,0-70.569,0-70.569,0V92.721h22.361v90.933c0,0,28.685,0,51.429,0
		c22.744,0,71.553-19.379,71.553-74.163c0-54.783-52.174-71.926-69.317-71.926s-175.157,0-175.157,0V206.759z"/>
	<polygon points="44.7,206.759 44.7,125.516 128.179,125.516 128.179,147.876 67.061,147.876 67.061,206.759 	"/>
	<path d="M128.179,115.827V92.721H67.061V68.213c0,0,119.553,0,140.635,0c21.082,0,43.466,17.054,43.466,42.023
		c0,24.969-22.625,42.112-38.758,42.112c-20.87,0-21.924,0-21.924,0V92.721h-23.106v81.989c0,0,21.179,0,45.03,0
		c28.52,0,61.491-24.755,61.491-63.728c0-38.601-29.986-65.218-65.844-65.218c-38.385,0-163.352,0-163.352,0v70.063H128.179z"/>
	<polygon points="270.914,206.759 373.4,37.565 457.625,174.709 341.349,174.709 341.349,152.349 416.63,152.349 373.4,81.913 
		302.218,206.759 	"/>
</g>
<g>
	<path d="M41.539,311.551l18.42-54.529H74.9l18.42,54.529H79.222l-3.406-11.133H58.677l-3.406,11.133H41.539z M72.813,290.53
		l-5.566-17.981L61.68,290.53H72.813z"/>
	<path d="M140.708,274.234c0,2.539-0.403,4.956-1.208,7.25c-0.806,2.296-1.965,4.212-3.479,5.75
		c-0.928,0.952-1.947,1.831-3.058,2.637c-1.111,0.806-2.338,1.489-3.681,2.051c-1.343,0.562-2.802,1.001-4.376,1.318
		c-1.575,0.317-3.339,0.477-5.292,0.477h-7.178v17.834H98.741v-54.529h21.167c3.149,0,5.865,0.288,8.148,0.861
		c2.282,0.573,4.352,1.482,6.207,2.729c2.051,1.367,3.638,3.191,4.761,5.475C140.146,268.369,140.708,271.084,140.708,274.234z
		 M126.646,274.563c0-1.538-0.366-2.862-1.099-3.974c-0.732-1.11-1.611-1.873-2.637-2.289c-1.294-0.561-2.533-0.884-3.717-0.97
		c-1.185-0.086-2.79-0.128-4.816-0.128h-1.941v16.332h0.952c1.294,0,2.514-0.012,3.662-0.036c1.147-0.024,2.148-0.11,3.003-0.257
		c0.732-0.121,1.507-0.359,2.325-0.714c0.818-0.354,1.447-0.751,1.886-1.19c0.928-0.902,1.556-1.843,1.886-2.819
		C126.481,277.542,126.646,276.224,126.646,274.563z"/>
	<path d="M190,274.234c0,2.539-0.403,4.956-1.208,7.25c-0.806,2.296-1.965,4.212-3.479,5.75c-0.928,0.952-1.947,1.831-3.058,2.637
		c-1.111,0.806-2.338,1.489-3.681,2.051c-1.343,0.562-2.802,1.001-4.376,1.318c-1.575,0.317-3.339,0.477-5.292,0.477h-7.178v17.834
		h-13.696v-54.529H169.2c3.149,0,5.865,0.288,8.148,0.861c2.282,0.573,4.352,1.482,6.207,2.729c2.051,1.367,3.638,3.191,4.761,5.475
		C189.438,268.369,190,271.084,190,274.234z M175.938,274.563c0-1.538-0.366-2.862-1.099-3.974c-0.732-1.11-1.611-1.873-2.637-2.289
		c-1.294-0.561-2.533-0.884-3.717-0.97c-1.185-0.086-2.79-0.128-4.816-0.128h-1.941v16.332h0.952c1.294,0,2.514-0.012,3.662-0.036
		c1.147-0.024,2.148-0.11,3.003-0.257c0.732-0.121,1.507-0.359,2.325-0.714c0.818-0.354,1.447-0.751,1.886-1.19
		c0.928-0.902,1.556-1.843,1.886-2.819C175.773,277.542,175.938,276.224,175.938,274.563z"/>
	<path d="M247.752,311.551h-16.699l-15.198-19.995h-4.907v19.995h-13.623v-54.529h21.936c3.027,0,5.664,0.189,7.91,0.568
		c2.246,0.379,4.321,1.166,6.226,2.361c1.953,1.246,3.503,2.826,4.651,4.743c1.147,1.917,1.721,4.352,1.721,7.306
		c0,4.175-0.94,7.563-2.82,10.162c-1.88,2.601-4.395,4.67-7.544,6.207L247.752,311.551z M225.706,273.721
		c0-1.366-0.263-2.545-0.788-3.533c-0.525-0.989-1.397-1.752-2.618-2.289c-0.855-0.366-1.807-0.598-2.856-0.695
		c-1.05-0.098-2.356-0.146-3.918-0.146h-4.578v14.685h3.918c1.904,0,3.521-0.115,4.852-0.348s2.459-0.727,3.388-1.483
		c0.879-0.684,1.532-1.502,1.959-2.453C225.492,276.504,225.706,275.26,225.706,273.721z"/>
	<path d="M301.439,284.305c0,8.813-2.356,15.747-7.068,20.801s-11.17,7.58-19.373,7.58c-8.228,0-14.685-2.557-19.372-7.672
		c-4.688-5.114-7.031-12.018-7.031-20.709c0-8.765,2.344-15.692,7.031-20.782c4.688-5.091,11.145-7.636,19.372-7.636
		c8.203,0,14.661,2.533,19.373,7.599C299.083,268.552,301.439,275.491,301.439,284.305z M287.302,284.268
		c0-3.246-0.335-6.011-1.007-8.294s-1.568-4.157-2.691-5.622c-1.172-1.488-2.496-2.557-3.974-3.204
		c-1.478-0.646-3.009-0.97-4.596-0.97c-1.685,0-3.211,0.299-4.578,0.896c-1.367,0.599-2.686,1.666-3.955,3.205
		c-1.123,1.416-2.032,3.295-2.728,5.639c-0.696,2.344-1.044,5.14-1.044,8.387c0,3.345,0.33,6.122,0.988,8.331
		c0.66,2.21,1.563,4.06,2.711,5.548c1.172,1.515,2.502,2.595,3.991,3.241c1.489,0.647,3.027,0.971,4.614,0.971
		c1.611,0,3.174-0.348,4.688-1.044c1.514-0.695,2.82-1.775,3.918-3.24c1.172-1.587,2.075-3.437,2.711-5.549
		C286.985,290.451,287.302,287.687,287.302,284.268z"/>
	<path d="M355.088,257.021l-18.75,54.529h-14.282l-18.75-54.529h14.209l11.865,36.951l11.865-36.951H355.088z"/>
	<path d="M360.142,311.551v-54.529h36.877v10.4h-23.254v9.559h21.424v10.4h-21.424v13.77h23.254v10.4H360.142z"/>
	<path d="M454.991,284.342c0,5.078-1.111,9.625-3.333,13.641c-2.222,4.017-5.029,7.099-8.422,9.247
		c-2.833,1.831-5.915,3.009-9.247,3.534c-3.333,0.525-6.879,0.787-10.639,0.787h-17.065v-54.529h16.919
		c3.833,0,7.422,0.245,10.767,0.732c3.345,0.489,6.482,1.673,9.412,3.553c3.588,2.295,6.42,5.39,8.496,9.283
		C453.953,274.484,454.991,279.068,454.991,284.342z M440.928,284.231c0-3.589-0.617-6.659-1.85-9.21s-3.131-4.547-5.694-5.988
		c-1.855-1.025-3.803-1.586-5.841-1.684c-2.039-0.098-4.475-0.146-7.306-0.146h-0.257v34.131h0.257c3.076,0,5.67-0.056,7.781-0.165
		c2.111-0.11,4.12-0.763,6.024-1.96c2.246-1.415,3.955-3.369,5.127-5.859S440.928,287.82,440.928,284.231z"/>
</g>
</svg>
